<svg xmlns="http://www.w3.org/2000/svg" viewBox="0 0 128 128" role="img" aria-labelledby="title">
  <title>iYuu Notes</title>
  <rect width="128" height="128" rx="28" fill="#f4ead8" />
  <path d="M18 82c13-15 24-22 34-22 13 0 16 18 29 18 9 0 18-6 29-19v23c-11 12-21 18-31 18-14 0-18-18-31-18-8 0-17 5-30 18z" fill="#0f766e" />
  <path d="M30 38h13v16h7V38h13v52H50V66h-7v24H30z" fill="#15232a" />
  <path d="M74 38h13v30c0 6 3 9 8 9s8-3 8-9V38h13v31c0 14-8 23-21 23S74 83 74 69z" fill="#15232a" />
</svg>
